<?xml version="1.0" ?>
<!-- Uploaded to: SVG Repo, www.svgrepo.com, Generator: SVG Repo Mixer Tools -->
<svg width="800px" height="800px" viewBox="0 0 512 512" id="Layer_1" version="1.1" xml:space="preserve" xmlns="http://www.w3.org/2000/svg" xmlns:xlink="http://www.w3.org/1999/xlink">
<style type="text/css">
	.st0{fill:#231F20;}
</style>
<g>
<path class="st0" d="M343,91c-3.7,0-7.1,2-8.8,5.3c-15.3,28.5-44.8,46.2-77.2,46.2s-61.9-17.7-77.2-46.2c-1.7-3.2-5.1-5.3-8.8-5.3   h-2c-57.6,0-104.5,46.9-104.5,104.5V219c0,5.5,4.5,10,10,10H118v182c0,5.5,4.5,10,10,10h256c5.5,0,10-4.5,10-10V229h43.5   c5.5,0,10-4.5,10-10v-23.5C447.5,137.9,400.6,91,343,91z M427.5,209H384c-5.5,0-10,4.5-10,10v182H138V219c0-5.5-4.5-10-10-10H84.5   v-13.5c0-45.4,35.9-82.5,80.8-84.5c19.5,31.9,54.1,51.4,91.7,51.4c37.6,0,72.2-19.5,91.7-51.3c44,2.9,78.9,39.6,78.9,84.4V209z"/>
<path class="st0" d="M256,193c-8.3,0-15,6.7-15,15s6.7,15,15,15s15-6.7,15-15S264.3,193,256,193z M256,213c-2.8,0-5-2.2-5-5   s2.2-5,5-5s5,2.2,5,5S258.8,213,256,213z"/>
<path class="st0" d="M256,236.5c-8.3,0-15,6.7-15,15c0,8.3,6.7,15,15,15s15-6.7,15-15C271,243.2,264.3,236.5,256,236.5z M256,256.5   c-2.8,0-5-2.2-5-5s2.2-5,5-5s5,2.2,5,5S258.8,256.5,256,256.5z"/>
<path class="st0" d="M256,276.5c-8.3,0-15,6.7-15,15s6.7,15,15,15s15-6.7,15-15S264.3,276.5,256,276.5z M256,296.5   c-2.8,0-5-2.2-5-5s2.2-5,5-5s5,2.2,5,5S258.8,296.5,256,296.5z"/>
</g>
</svg>