<?xml version="1.0" encoding="iso-8859-1"?>
<!-- Uploaded to: SVG Repo, www.svgrepo.com, Generator: SVG Repo Mixer Tools -->
<svg fill="#000000" height="800px" width="800px" version="1.1" id="Layer_1" xmlns="http://www.w3.org/2000/svg" xmlns:xlink="http://www.w3.org/1999/xlink" 
	 viewBox="0 0 512 512" xml:space="preserve">
<g>
	<g>
		<path d="M467.25,111.359c-28.582-41.668-68.349-73.705-115.002-92.647c-5.121-2.078-10.957,0.387-13.038,5.508
			c-2.079,5.121,0.387,10.957,5.508,13.038c43.005,17.461,79.669,47,106.025,85.424c26.98,39.33,41.24,85.432,41.24,133.319
			c0,130.124-105.862,235.985-235.985,235.985S20.015,386.122,20.015,256S125.876,20.015,256,20.015
			c5.527,0,10.007-4.481,10.007-10.007C266.007,4.481,261.527,0,256,0C114.84,0,0,114.84,0,256s114.84,256,256,256
			s256-114.84,256-256C512,204.053,496.526,154.037,467.25,111.359z"/>
	</g>
</g>
<g>
	<g>
		<path d="M212.878,136.432c-23.943,0-43.424,19.48-43.424,43.424c0,5.527,4.481,10.007,10.007,10.007
			c5.527,0,10.007-4.481,10.007-10.007c0-12.908,10.501-23.409,23.409-23.409s23.409,10.502,23.409,23.409
			c0,5.527,4.481,10.007,10.007,10.007c5.527,0,10.007-4.481,10.007-10.007C256.302,155.912,236.821,136.432,212.878,136.432z"/>
	</g>
</g>
<g>
	<g>
		<path d="M381.9,136.432c-23.943,0-43.424,19.48-43.424,43.424c0,5.527,4.481,10.007,10.007,10.007
			c5.527,0,10.007-4.481,10.007-10.007c0-12.908,10.501-23.409,23.409-23.409c12.908,0,23.409,10.502,23.409,23.409
			c0,5.527,4.481,10.007,10.007,10.007s10.007-4.481,10.007-10.007C425.324,155.912,405.843,136.432,381.9,136.432z"/>
	</g>
</g>
<g>
	<g>
		<path d="M361.013,346.585c-4.74-2.842-10.887-1.302-13.729,3.437c-10.199,17.013-28.191,27.58-46.954,27.58
			c-19.257-0.001-37.047-10.464-46.427-27.305c-2.69-4.828-8.785-6.562-13.613-3.872c-4.829,2.69-6.562,8.784-3.872,13.613
			c12.912,23.18,37.402,37.58,63.911,37.58c25.756,0,50.326-14.293,64.122-37.303C367.292,355.573,365.754,349.427,361.013,346.585z
			"/>
	</g>
</g>
<g>
	<g>
		<circle cx="314.071" cy="17.014" r="10.007"/>
	</g>
</g>
</svg>